<mxfile host="65bd71144e">
    <diagram name="Page-1" id="lDkK2i6CeL2VbSOVDvrP">
        <mxGraphModel dx="1144" dy="743" grid="1" gridSize="10" guides="1" tooltips="1" connect="1" arrows="1" fold="1" page="1" pageScale="1" pageWidth="827" pageHeight="1169" math="0" shadow="0">
            <root>
                <mxCell id="0"/>
                <mxCell id="1" parent="0"/>
                <mxCell id="ifhO3zQZNW-sXvZMTmu8-2" value="LibSCI Dylib (RING 3) (EL0)" style="rounded=0;whiteSpace=wrap;html=1;" parent="1" vertex="1">
                    <mxGeometry x="235.5" y="340" width="360" height="30" as="geometry"/>
                </mxCell>
                <mxCell id="ifhO3zQZNW-sXvZMTmu8-3" value="Dylibs and Applications. (RING 3) (EL0)" style="rounded=0;whiteSpace=wrap;html=1;" parent="1" vertex="1">
                    <mxGeometry x="235.5" y="295" width="360" height="35" as="geometry"/>
                </mxCell>
                <mxCell id="ifhO3zQZNW-sXvZMTmu8-8" value="&lt;h1 style=&quot;margin-top: 0px;&quot;&gt;&lt;span style=&quot;background-color: initial;&quot;&gt;OS's Design&lt;/span&gt;&lt;/h1&gt;&lt;h1 style=&quot;margin-top: 0px;&quot;&gt;&lt;span style=&quot;font-size: 12px; font-weight: 400;&quot;&gt;This describes how ZKA is structued and how we're supposed to deal with (rings included.)&lt;/span&gt;&lt;/h1&gt;" style="text;html=1;whiteSpace=wrap;overflow=hidden;rounded=0;" parent="1" vertex="1">
                    <mxGeometry x="620" y="310" width="180" height="180" as="geometry"/>
                </mxCell>
                <mxCell id="ifhO3zQZNW-sXvZMTmu8-13" value="NewOS MP Kernel, DDK and it's drivers. (RING 0) (EL1)" style="rounded=0;whiteSpace=wrap;html=1;" parent="1" vertex="1">
                    <mxGeometry x="235.5" y="450" width="360" height="60" as="geometry"/>
                </mxCell>
                <mxCell id="4" value="LibSCI and DDK syscalls/kerncalls (RING 0/RING 2) (EL0, EL1)" style="rounded=0;whiteSpace=wrap;html=1;" parent="1" vertex="1">
                    <mxGeometry x="235.5" y="380" width="360" height="60" as="geometry"/>
                </mxCell>
            </root>
        </mxGraphModel>
    </diagram>
</mxfile>